<svg width="121" height="37" viewBox="0 0 121 37" fill="none" xmlns="http://www.w3.org/2000/svg">
<path fill-rule="evenodd" clip-rule="evenodd" d="M82.9342 16.711V5.80487H80.9992V4.72012H82.9342V1.78837C82.9342 1.29974 83.0221 0.879527 83.198 0.527716C83.3935 0.175906 83.7942 0 84.4001 0H88.1234V1.11407H84.3121V4.72012H87.8889V5.80487H84.3121V16.711H82.9342ZM89.7017 4.72012V16.623H91.021V10.8768C91.021 10.2318 91.0601 9.62593 91.1383 9.05912C91.236 8.49231 91.4315 8.00369 91.7246 7.59324C92.0178 7.16325 92.4576 6.83099 93.0439 6.59645C93.6498 6.34236 94.4512 6.21532 95.448 6.21532H96.0929V4.72012H95.448C94.7248 4.72012 94.0896 4.81785 93.5423 5.0133C93.0146 5.20875 92.5553 5.47261 92.1644 5.80487C91.793 6.13714 91.4999 6.51827 91.2849 6.94826C91.1718 7.19692 91.085 7.45212 91.0242 7.71386L90.8451 4.72012H89.7017ZM102.671 16.9162C101.44 16.9162 100.404 16.6621 99.5632 16.154C98.7423 15.6263 98.1266 14.9031 97.7162 13.9845C97.3057 13.0659 97.1005 12.0202 97.1005 10.8475C97.1005 9.65524 97.3057 8.59981 97.7162 7.6812C98.1266 6.74303 98.7423 6.01987 99.5632 5.5117C100.404 4.98398 101.44 4.72012 102.671 4.72012C104.469 4.72012 105.837 5.28693 106.775 6.42054C107.733 7.53461 108.212 9.01026 108.212 10.8475C108.212 11.9811 108.016 13.017 107.626 13.9552C107.235 14.8738 106.629 15.5969 105.808 16.1246C104.987 16.6524 103.941 16.9162 102.671 16.9162ZM102.671 15.7142C103.765 15.7142 104.616 15.4699 105.221 14.9813C105.827 14.4926 106.248 13.877 106.482 13.1343C106.736 12.372 106.863 11.6 106.863 10.8182C106.863 10.0168 106.736 9.2448 106.482 8.50209C106.248 7.73983 105.827 7.11439 105.221 6.62576C104.616 6.13714 103.765 5.89283 102.671 5.89283C101.596 5.89283 100.746 6.13714 100.12 6.62576C99.4948 7.11439 99.055 7.73983 98.8009 8.50209C98.5664 9.2448 98.4491 10.0168 98.4491 10.8182C98.4491 11.6 98.5664 12.372 98.8009 13.1343C99.055 13.877 99.4948 14.4926 100.12 14.9813C100.746 15.4699 101.596 15.7142 102.671 15.7142ZM112.637 21.3139V20.0532H119.622V13.7499H119.563C119.524 13.8477 119.407 14.0724 119.212 14.4242C119.036 14.7565 118.762 15.1181 118.391 15.509C118.039 15.8999 117.589 16.2321 117.042 16.5058C116.495 16.7794 115.83 16.9162 115.049 16.9162C113.915 16.9162 112.947 16.6426 112.146 16.0953C111.364 15.5481 110.768 14.8151 110.358 13.8965C109.947 12.9779 109.742 11.9518 109.742 10.8182C109.742 9.66502 109.947 8.62913 110.358 7.71051C110.768 6.77235 111.374 6.03941 112.175 5.5117C112.977 4.98398 113.944 4.72012 115.078 4.72012C115.879 4.72012 116.554 4.85694 117.101 5.13057C117.668 5.4042 118.117 5.73647 118.449 6.12737C118.801 6.51827 119.055 6.88962 119.212 7.24143C119.388 7.5737 119.495 7.80824 119.534 7.94505H119.593V4.72012H121V19.1737C121 19.6037 120.951 19.975 120.853 20.2877C120.756 20.62 120.58 20.8741 120.326 21.05C120.091 21.2259 119.739 21.3139 119.27 21.3139H113.855V24.5526H116.64V25.6373H113.855V35.3121H116.64V36.4555H114.03C113.425 36.4555 113.024 36.2796 112.828 35.9278C112.653 35.576 112.565 35.1558 112.565 34.6671V25.6373H110.6V24.5526C111.128 24.5526 111.529 24.533 111.802 24.4939C112.076 24.4548 112.271 24.3474 112.389 24.1714C112.506 23.976 112.574 23.673 112.594 23.2626C112.626 22.9046 112.645 22.0349 112.651 21.3139H112.637ZM115.224 15.6556C116.026 15.6556 116.749 15.4699 117.394 15.0985C118.059 14.7272 118.586 14.1799 118.977 13.4568C119.368 12.714 119.563 11.8345 119.563 10.8182C119.563 9.80183 119.378 8.94185 119.006 8.23823C118.635 7.51506 118.137 6.9678 117.511 6.59645C116.905 6.20555 116.202 6.0101 115.4 6.0101C114.423 6.0101 113.612 6.24464 112.967 6.71372C112.322 7.16325 111.843 7.75938 111.53 8.50209C111.218 9.22526 111.061 9.99728 111.061 10.8182C111.061 11.6195 111.198 12.4013 111.472 13.1636C111.765 13.9063 112.215 14.5122 112.82 14.9813C113.446 15.4308 114.247 15.6556 115.224 15.6556ZM72.3851 16.5058C72.9324 16.7794 73.5969 16.9162 74.3787 16.9162C75.4928 16.9162 76.4407 16.6524 77.2225 16.1246C78.0239 15.5969 78.6395 14.8738 79.0695 13.9552C79.4995 13.0365 79.7145 12.0006 79.7145 10.8475C79.7145 9.69433 79.4995 8.65845 79.0695 7.73983C78.6591 6.82122 78.0532 6.08828 77.2519 5.54102C76.47 4.99375 75.5026 4.72012 74.3494 4.72012C73.5481 4.72012 72.864 4.85694 72.2972 5.13057C71.7499 5.4042 71.3004 5.73647 70.9486 6.12737C70.6163 6.51827 70.372 6.88962 70.2156 7.24143C70.0593 7.5737 69.9518 7.80824 69.8931 7.94505H69.8345L69.6 4.72012H68.4566V21.3139H69.8052V13.7499H69.8638C69.9225 13.8477 70.0397 14.0724 70.2156 14.4242C70.4111 14.7565 70.6847 15.1181 71.0365 15.509C71.3883 15.8999 71.8379 16.2321 72.3851 16.5058ZM76.6069 14.9813C76.001 15.4308 75.2094 15.6556 74.2321 15.6556C73.4308 15.6556 72.6979 15.4699 72.0333 15.0985C71.3883 14.7272 70.8704 14.1799 70.4795 13.4568C70.0886 12.714 69.8931 11.8345 69.8931 10.8182C69.8931 9.80183 70.0691 8.94185 70.4209 8.23823C70.7922 7.51506 71.2906 6.9678 71.9161 6.59645C72.5415 6.20555 73.2451 6.0101 74.0269 6.0101C75.0042 6.0101 75.8153 6.24464 76.4603 6.71372C77.1248 7.16325 77.6134 7.75938 77.9262 8.50209C78.2389 9.22526 78.3952 9.99728 78.3952 10.8182C78.3952 11.6195 78.2486 12.4013 77.9555 13.1636C77.6818 13.9063 77.2323 14.5122 76.6069 14.9813ZM60.2452 16.8869C59.1506 16.8869 58.2418 16.6133 57.5186 16.066C56.7955 15.5188 56.258 14.7858 55.9062 13.8672C55.5544 12.929 55.3785 11.8931 55.3785 10.7595C55.3785 9.56729 55.5544 8.51186 55.9062 7.59324C56.2775 6.67463 56.8248 5.95146 57.5479 5.42374C58.2907 4.87648 59.1897 4.60285 60.2452 4.60285C60.8315 4.60285 61.3495 4.68103 61.799 4.83739C62.2485 4.99375 62.6492 5.19898 63.001 5.45306C63.3528 5.70715 63.646 6.00032 63.8805 6.33259C64.1346 6.64531 64.3301 6.98735 64.4669 7.3587H64.4962V4.72012H65.8741V16.623H64.7601L64.5255 14.1604H64.4669C64.3105 14.5122 64.1053 14.8542 63.8512 15.1865C63.6167 15.4992 63.3235 15.7924 62.9717 16.066C62.6199 16.3201 62.2192 16.5155 61.7697 16.6524C61.3201 16.8087 60.812 16.8869 60.2452 16.8869ZM60.7436 15.6556C61.584 15.6556 62.2778 15.4601 62.8251 15.0692C63.3919 14.6783 63.8121 14.1213 64.0858 13.3981C64.3594 12.6554 64.4962 11.7857 64.4962 10.7889C64.4962 9.69433 64.3496 8.79526 64.0564 8.09164C63.7633 7.36847 63.3333 6.82121 62.7665 6.44986C62.2192 6.0785 61.5449 5.89282 60.7436 5.89282C59.8249 5.89282 59.0627 6.10782 58.4568 6.53781C57.8704 6.9678 57.4307 7.54438 57.1375 8.26755C56.8639 8.99071 56.7271 9.82137 56.7271 10.7595C56.7271 11.7172 56.8736 12.5675 57.1668 13.3102C57.46 14.0529 57.8998 14.6295 58.4861 15.0399C59.092 15.4503 59.8445 15.6556 60.7436 15.6556ZM45.1082 16.0074C45.9486 16.6133 47.004 16.9162 48.2744 16.9162C49.1931 16.9162 50.0237 16.7403 50.7664 16.3885C51.5091 16.0367 52.1248 15.5578 52.6134 14.9519C53.1021 14.3265 53.4148 13.6131 53.5516 12.8118H52.2323C52.0564 13.7108 51.5971 14.4242 50.8544 14.9519C50.1312 15.4797 49.2712 15.7435 48.2744 15.7435C46.9063 15.7435 45.8411 15.294 45.0788 14.3949C44.3361 13.4958 43.9648 12.2938 43.9648 10.7889H53.5809V10.4077C53.5809 10.2709 53.5711 10.1536 53.5516 10.0559C53.493 8.9614 53.2291 8.02324 52.76 7.24143C52.2909 6.44009 51.6655 5.82442 50.8837 5.39443C50.1215 4.94489 49.2419 4.72012 48.2451 4.72012C47.0529 4.72012 46.0365 5.00353 45.1961 5.57033C44.3752 6.11759 43.7498 6.85053 43.3198 7.76915C42.8898 8.68777 42.6748 9.67479 42.6748 10.7302C42.6552 11.7466 42.8507 12.7336 43.2611 13.6913C43.6716 14.6295 44.2873 15.4015 45.1082 16.0074ZM52.203 9.90933H44.0527C44.1309 9.36207 44.2677 8.8539 44.4632 8.38482C44.6782 7.89619 44.9518 7.4662 45.2841 7.09485C45.6359 6.72349 46.0561 6.43032 46.5447 6.21532C47.0333 5.98078 47.6001 5.86351 48.2451 5.86351C48.9487 5.86351 49.5449 6.00032 50.0335 6.27395C50.5417 6.54758 50.9521 6.89939 51.2648 7.32939C51.5776 7.75938 51.8023 8.20891 51.9391 8.67799C52.0955 9.12753 52.1835 9.53797 52.203 9.90933ZM30.1615 15.4503V0.117272H31.4808V15.4503H41.1555V16.623H30.1615V16.2712V15.4503ZM103.789 36.7487C102.675 36.7487 101.688 36.5141 100.828 36.0451C99.9873 35.576 99.3228 34.8919 98.8341 33.9928C98.3455 33.0938 98.1012 32.0286 98.1012 30.7972C98.1403 29.5463 98.3944 28.4518 98.8635 27.5136C99.3521 26.5755 100.026 25.8523 100.886 25.3442C101.746 24.8164 102.743 24.5526 103.877 24.5526C104.854 24.5526 105.714 24.7383 106.457 25.1096C107.199 25.4614 107.805 25.95 108.274 26.5755C108.763 27.2009 109.076 27.9143 109.213 28.7157H107.952C107.756 27.7971 107.297 27.0837 106.574 26.5755C105.851 26.0478 104.962 25.7839 103.906 25.7839C103.007 25.7839 102.225 25.9989 101.561 26.4289C100.896 26.8393 100.378 27.4159 100.007 28.1586C99.6355 28.9013 99.44 29.7613 99.4205 30.7386C99.4205 32.1849 99.8114 33.3478 100.593 34.2274C101.395 35.0873 102.47 35.5173 103.818 35.5173C104.874 35.5173 105.773 35.2535 106.515 34.7258C107.278 34.1981 107.756 33.4749 107.952 32.5563H109.213C109.076 33.3576 108.753 34.071 108.245 34.6964C107.756 35.3219 107.131 35.8203 106.369 36.1916C105.626 36.563 104.766 36.7487 103.789 36.7487ZM87.567 35.8398C88.4075 36.4457 89.4629 36.7487 90.7333 36.7487C91.652 36.7487 92.4826 36.5728 93.2253 36.221C93.968 35.8691 94.5837 35.3903 95.0723 34.7844C95.561 34.159 95.8737 33.4456 96.0105 32.6442H94.6912C94.5153 33.5433 94.056 34.2567 93.3133 34.7844C92.5901 35.3121 91.7301 35.576 90.7333 35.576C89.3652 35.576 88.3 35.1264 87.5377 34.2274C86.795 33.3283 86.4237 32.1263 86.4237 30.6213H96.0398V30.2402C96.0398 30.1034 96.03 29.9861 96.0105 29.8884C95.9519 28.7938 95.688 27.8557 95.2189 27.0739C94.7498 26.2725 94.1244 25.6569 93.3426 25.2269C92.5803 24.7773 91.7008 24.5526 90.704 24.5526C89.5118 24.5526 88.4954 24.836 87.655 25.4028C86.8341 25.95 86.2087 26.683 85.7787 27.6016C85.3487 28.5202 85.1337 29.5072 85.1337 30.5627C85.1141 31.579 85.3096 32.566 85.72 33.5237C86.1305 34.4619 86.7462 35.2339 87.567 35.8398ZM94.6619 29.7418H86.5116C86.5898 29.1945 86.7266 28.6864 86.9221 28.2173C87.1371 27.7286 87.4107 27.2987 87.743 26.9273C88.0948 26.5559 88.515 26.2628 89.0036 26.0478C89.4922 25.8132 90.059 25.696 90.704 25.696C91.4076 25.696 92.0038 25.8328 92.4924 26.1064C93.0006 26.38 93.411 26.7318 93.7237 27.1618C94.0365 27.5918 94.2612 28.0414 94.398 28.5104C94.5544 28.96 94.6423 29.3704 94.6619 29.7418ZM72.6577 36.4555V24.5526H73.7718L74.0063 27.7189H74.0649C74.104 27.5821 74.2018 27.3475 74.3581 27.0153C74.5145 26.683 74.7588 26.3312 75.0911 25.9598C75.4233 25.5689 75.8631 25.2367 76.4104 24.963C76.9576 24.6894 77.6417 24.5526 78.4626 24.5526C79.2835 24.5526 79.9578 24.6698 80.4855 24.9044C81.0328 25.1389 81.4725 25.4614 81.8048 25.8719C82.1566 26.2628 82.4204 26.7221 82.5964 27.2498C82.7723 27.758 82.8895 28.2955 82.9482 28.8623C83.0068 29.4291 83.0361 29.9959 83.0361 30.5627V36.4555H81.7168V30.5627C81.7168 29.5854 81.6093 28.745 81.3943 28.0414C81.1793 27.3182 80.8178 26.7612 80.3096 26.3703C79.8014 25.9794 79.0978 25.7839 78.1987 25.7839C77.241 25.7839 76.4494 26.0185 75.824 26.4875C75.2181 26.9566 74.7588 27.5723 74.4461 28.3345C74.1529 29.0968 74.0063 29.9275 74.0063 30.8265V36.4555H72.6577ZM59.8885 24.5526V36.4555H61.2371V30.8265C61.2371 29.9275 61.3837 29.0968 61.6769 28.3345C61.9896 27.5723 62.4489 26.9566 63.0548 26.4875C63.6803 26.0185 64.4719 25.7839 65.4296 25.7839C66.3286 25.7839 67.0323 25.9794 67.5404 26.3703C68.0486 26.7612 68.4102 27.3182 68.6252 28.0414C68.8402 28.745 68.9477 29.5854 68.9477 30.5627V36.4555H70.267V30.5627C70.267 29.9959 70.2376 29.4291 70.179 28.8623C70.1204 28.2955 70.0031 27.758 69.8272 27.2498C69.6513 26.7221 69.3874 26.2628 69.0356 25.8719C68.7034 25.4614 68.2636 25.1389 67.7163 24.9044C67.1886 24.6698 66.5143 24.5526 65.6934 24.5526C64.8725 24.5526 64.1885 24.6894 63.6412 24.963C63.0939 25.2367 62.6542 25.5689 62.3219 25.9598C61.9896 26.3312 61.7453 26.683 61.589 27.0153C61.4326 27.3475 61.3349 27.5821 61.2958 27.7189H61.2371L61.0026 24.5526H59.8885ZM51.9378 36.7487C50.7064 36.7487 49.6705 36.4946 48.8301 35.9864C48.0092 35.4587 47.3935 34.7355 46.9831 33.8169C46.5726 32.8983 46.3674 31.8526 46.3674 30.6799C46.3674 29.4877 46.5726 28.4323 46.9831 27.5136C47.3935 26.5755 48.0092 25.8523 48.8301 25.3442C49.6705 24.8164 50.7064 24.5526 51.9378 24.5526C53.7359 24.5526 55.1041 25.1194 56.0422 26.253C56.9999 27.3671 57.4788 28.8427 57.4788 30.6799C57.4788 31.8136 57.2833 32.8494 56.8924 33.7876C56.5015 34.7062 55.8956 35.4294 55.0747 35.9571C54.2538 36.4848 53.2082 36.7487 51.9378 36.7487ZM51.9378 35.5467C53.0323 35.5467 53.8825 35.3023 54.4884 34.8137C55.0943 34.3251 55.5145 33.7094 55.749 32.9667C56.0031 32.2045 56.1302 31.4324 56.1302 30.6506C56.1302 29.8493 56.0031 29.0773 55.749 28.3345C55.5145 27.5723 55.0943 26.9468 54.4884 26.4582C53.8825 25.9696 53.0323 25.7253 51.9378 25.7253C50.8628 25.7253 50.0126 25.9696 49.3871 26.4582C48.7617 26.9468 48.3219 27.5723 48.0678 28.3345C47.8333 29.0773 47.716 29.8493 47.716 30.6506C47.716 31.4324 47.8333 32.2045 48.0678 32.9667C48.3219 33.7094 48.7617 34.3251 49.3871 34.8137C50.0126 35.3023 50.8628 35.5467 51.9378 35.5467ZM32.8294 35.7812C34.0412 36.4262 35.3995 36.7487 36.9045 36.7487C38.2922 36.7487 39.504 36.5141 40.5399 36.0451C41.5953 35.576 42.4553 34.9017 43.1198 34.0221C43.7843 33.1231 44.2339 32.0383 44.4684 30.7679H43.0319C42.856 31.7842 42.4944 32.6442 41.9471 33.3478C41.4194 34.0515 40.7256 34.589 39.8656 34.9603C39.0056 35.3317 38.0186 35.5173 36.9045 35.5173C34.8718 35.5173 33.2593 34.9017 32.0671 33.6703C30.8944 32.4195 30.308 30.5822 30.308 28.1586C30.308 25.8132 30.9042 24.0151 32.0964 22.7642C33.3082 21.5133 34.95 20.8879 37.0218 20.8879C38.0381 20.8879 38.947 21.0736 39.7483 21.4449C40.5692 21.7967 41.2533 22.3342 41.8005 23.0574C42.3673 23.761 42.7485 24.6308 42.9439 25.6666H44.3218C44.0873 24.3767 43.628 23.2919 42.9439 22.4124C42.2794 21.5133 41.4487 20.8293 40.4519 20.3602C39.4551 19.8911 38.3117 19.6566 37.0218 19.6566C35.4582 19.6566 34.0607 19.979 32.8294 20.624C31.6176 21.2495 30.6696 22.1974 29.9856 23.4678C29.3015 24.7383 28.9594 26.3214 28.9594 28.2173C28.9594 30.0936 29.3015 31.667 29.9856 32.9374C30.6892 34.1883 31.6371 35.1362 32.8294 35.7812Z" fill="white"/>
<path fill-rule="evenodd" clip-rule="evenodd" d="M20.4073 0.239746C20.4073 10.5611 10.3127 20.6471 -3.05176e-05 20.6471V14.8344C7.11725 14.8344 14.6213 7.38983 14.6213 0.239746H20.4073ZM-5.72205e-06 35.8807C-5.72205e-06 25.5593 10.0945 15.4733 20.4073 15.4733V21.286C13.29 21.286 5.78598 28.7306 5.78598 35.8807H-5.72205e-06Z" fill="url(#paint0_linear_168_1128)"/>
<defs>
<linearGradient id="paint0_linear_168_1128" x1="-0.167263" y1="-0.330506" x2="31.18" y2="18.6529" gradientUnits="userSpaceOnUse">
<stop stop-color="#F2E221"/>
<stop offset="0.315" stop-color="#F2E221"/>
<stop offset="0.675" stop-color="#9BEF6B"/>
<stop offset="1" stop-color="#61F19B"/>
</linearGradient>
</defs>
</svg>
